<svg xmlns="http://www.w3.org/2000/svg" viewBox="0 0 275.75 388.46"><defs><style>.cls-1{fill:#fff;}</style></defs><title>Asset 10</title><g id="Layer_2" data-name="Layer 2"><g id="Layer_1-2" data-name="Layer 1"><path class="cls-1" d="M11.95,311.8h9.72l22,43.36h.47L65.71,311.8h9.55v56.54H65.71V322h-.3L42.22,368.34h-2l-23.45-46h-.64v46H11.95Z"/><path class="cls-1" d="M110.74,369.27a24,24,0,0,1-9.25-1.75,22.71,22.71,0,0,1-7.29-4.75,21.74,21.74,0,0,1-6.52-15.67A23.8,23.8,0,0,1,89.4,338a22.83,22.83,0,0,1,4.8-7.4,22.36,22.36,0,0,1,7.29-5,23.22,23.22,0,0,1,9.25-1.81,24.74,24.74,0,0,1,9.19,1.66,22.56,22.56,0,0,1,7.27,4.56,20.89,20.89,0,0,1,4.8,6.8,20.47,20.47,0,0,1,1.73,8.38,25.12,25.12,0,0,1-1.73,9.32,23.75,23.75,0,0,1-4.8,7.63,22.71,22.71,0,0,1-7.27,5.16A22.06,22.06,0,0,1,110.74,369.27Zm1.66-3.2a8.73,8.73,0,0,0,4.69-1.32,12.29,12.29,0,0,0,3.67-3.56,17.9,17.9,0,0,0,2.39-5.18,22.26,22.26,0,0,0,.85-6.23,46.16,46.16,0,0,0-.81-8.87,22.32,22.32,0,0,0-2.64-7.21,13.06,13.06,0,0,0-11.94-6.61,8,8,0,0,0-4.22,1.26,12.48,12.48,0,0,0-3.6,3.43,18.28,18.28,0,0,0-2.49,5.1,20.16,20.16,0,0,0-.94,6.2,38.3,38.3,0,0,0,1,9,24.45,24.45,0,0,0,2.94,7.29,15.56,15.56,0,0,0,4.73,4.92A11.45,11.45,0,0,0,112.4,366.08Z"/><path class="cls-1" d="M152.27,323.87h2.47v8.83a29.09,29.09,0,0,1,8.23-6.63,18.72,18.72,0,0,1,8.66-2.2,9.21,9.21,0,0,1,4.28,1,11.16,11.16,0,0,1,3.47,2.81,13.57,13.57,0,0,1,2.34,4.2,15.29,15.29,0,0,1,.85,5.14v31.29h-8.66v-29.8a12.85,12.85,0,0,0-.51-3.82A7.8,7.8,0,0,0,172,332a6.28,6.28,0,0,0-2.2-1.68,6.63,6.63,0,0,0-2.79-.58,9.94,9.94,0,0,0-2.9.47,18.62,18.62,0,0,0-3.13,1.3,24.78,24.78,0,0,0-3.18,2,28.26,28.26,0,0,0-3,2.56v32.32H146v-42Z"/><path class="cls-1" d="M207.1,309.84h2.47v14.84h9.72v3.71h-9.72v30.74a4.63,4.63,0,0,0,.36,1.83,4.84,4.84,0,0,0,1,1.49,4.42,4.42,0,0,0,1.47,1,4.75,4.75,0,0,0,1.88.36,5,5,0,0,0,2.64-.72A8.41,8.41,0,0,0,219,361.3l2.17,1.45a13.61,13.61,0,0,1-4.65,4.78,13.34,13.34,0,0,1-7.08,1.75,9,9,0,0,1-3.79-.75,7,7,0,0,1-2.66-2.09,9.06,9.06,0,0,1-1.56-3.2,15.45,15.45,0,0,1-.51-4.11V328.39h-7.59v-1.62l7.59-2.09V312.27Z"/><path class="cls-1" d="M231.06,378.65a11.61,11.61,0,0,1,1.13.55q.62.34,1.36.66a10.17,10.17,0,0,0,1.64.53,8.67,8.67,0,0,0,2,.21,4.65,4.65,0,0,0,2.56-.77,9.88,9.88,0,0,0,2.17-1.92,15.89,15.89,0,0,0,1.75-2.52,26.87,26.87,0,0,0,1.28-2.56l2.94-6.57-22.3-41.61h9.85l16.8,31.55L266,324.68h4.65L248.37,376a26.45,26.45,0,0,1-3.22,5.54,20.39,20.39,0,0,1-3.86,3.88,15.34,15.34,0,0,1-4.22,2.28,13,13,0,0,1-4.22.75,9.64,9.64,0,0,1-3-.47,7.81,7.81,0,0,1-2.43-1.24Z"/><path class="cls-1" d="M121.36,44.65h-2.93a17.2,17.2,0,0,0-13.67,8.94c-.17.3-.34.6-.49.92L50.46,170c-.08.17-.14.35-.21.52l-11.17,24H67.25a17.16,17.16,0,0,0,13.53-7.94L136.4,67.25l10.54-22.59Z"/><path class="cls-1" d="M191.58,44.65h-2.93A17.2,17.2,0,0,0,175,53.59c-.17.3-.34.6-.49.92L120.68,170c-.08.17-.14.35-.21.52l-11.17,24h28.18a17.23,17.23,0,0,0,13.54-8,17.55,17.55,0,0,0,1.06-1.91L205.89,69.14a17,17,0,0,0,.74-1.89l10.53-22.59Z"/><polygon class="cls-1" points="232.12 83.95 225.43 98.61 232.12 83.95 232.12 83.95"/><path class="cls-1" d="M215,194.54a17.19,17.19,0,0,0,17.13-17.22V83.95l-6.68,14.66-27.76,60.92h0v17.79s0,0,0,.06v17.16"/><path class="cls-1" d="M222.25,211.69H48.94a8.61,8.61,0,0,0-8.61,8.61v8.61H222.25a8.61,8.61,0,0,0,8.61-8.61v-8.61Z"/><path class="cls-1" d="M234.32,275.75H41.44A41.48,41.48,0,0,1,0,234.32V41.44A41.48,41.48,0,0,1,41.44,0H234.32a41.48,41.48,0,0,1,41.44,41.44V234.32A41.48,41.48,0,0,1,234.32,275.75ZM41.44,8.72A32.75,32.75,0,0,0,8.72,41.44V234.32A32.75,32.75,0,0,0,41.44,267H234.32A32.75,32.75,0,0,0,267,234.32V41.44A32.75,32.75,0,0,0,234.32,8.72Z"/></g></g></svg>