<svg xmlns="http://www.w3.org/2000/svg" viewBox="0 0 255.37 259"><defs><style>.cls-1{fill:#1e2957;}</style></defs><title>Asset 9</title><g id="Layer_2" data-name="Layer 2"><g id="Layer_1-2" data-name="Layer 1"><path class="cls-1" d="M101.08,18.49l-3.24,4.85A4.28,4.28,0,0,0,98.65,29a4.36,4.36,0,0,0,5.66-.81l8.89-12.94a3.82,3.82,0,0,0,.81-2.82A2.72,2.72,0,0,0,112.39,10L99.46.7a4.29,4.29,0,0,0-5.66.81,4.28,4.28,0,0,0,.81,5.66l4.85,3.23C24.29,26.57-19,106.19,8.12,177.73a4.2,4.2,0,0,0,5.25,2.42h0a4,4,0,0,0,2-5.25C-9.66,108.21,30.75,33.44,101.08,18.49Z"/><path class="cls-1" d="M38.43,211.68l6.06.4c2.43.41,4-1.61,4.45-3.63A4.4,4.4,0,0,0,45.3,204l-15.76-1.21a4.4,4.4,0,0,0-4.45,3.63l-.8,15.77a4.39,4.39,0,0,0,3.63,4.44A4.4,4.4,0,0,0,32.37,223l.4-5.26c51.33,56.58,141.06,55,190-4.85a3.66,3.66,0,0,0-.81-5.66h0a4.41,4.41,0,0,0-5.66.81C170.59,263.41,86.12,265,38.43,211.68Z"/><path class="cls-1" d="M255.06,170.45a4.09,4.09,0,0,0-5.66-1.61L245,171.26c23.44-73.15-24.25-149.54-99-161.66a3.65,3.65,0,0,0-4.45,3.63h0a4,4,0,0,0,3.24,4.45C215.05,29,259.51,101.34,236.88,170.05l-3.24-5.66a4.16,4.16,0,0,0-7.27,4l7.27,13.75a4.09,4.09,0,0,0,5.66,1.61L253,176.52A5.36,5.36,0,0,0,255.06,170.45Z"/><path class="cls-1" d="M207,157.63a84.38,84.38,0,1,0-.62,1.68A3.39,3.39,0,0,0,207,157.63ZM112.15,54.05A114.36,114.36,0,0,0,87.19,97H57.88A77.31,77.31,0,0,1,112.15,54.05ZM50.66,129.5A76.43,76.43,0,0,1,55,104.09H85.23a107.85,107.85,0,0,0-3,25.25,94.15,94.15,0,0,0,3.23,24.44H54.6A76.83,76.83,0,0,1,50.66,129.5Zm6.71,31.39H87.66c7.51,21.42,21.15,36.76,29.89,45A77.23,77.23,0,0,1,57.37,160.89Zm66.76,41.26c-7.58-6.9-21-21.16-28.79-41.26h28.79Zm0-48.37H92.92a85.9,85.9,0,0,1-3.56-24.44,99.26,99.26,0,0,1,3.26-25.25h31.51Zm0-56.8H94.76c9.64-28.17,28.84-44.19,29.1-44.4h.27Zm73.36,0h-29.3a114.4,114.4,0,0,0-24.87-42.91A77.31,77.31,0,0,1,197.49,97ZM131.24,52.56h.37c.26.21,19.43,16.17,29,44.4H131.24Zm0,51.53h31.54A100.07,100.07,0,0,1,166,129.34a85.94,85.94,0,0,1-3.59,24.44H131.24Zm0,98.07V160.89H160C152.27,181,138.83,195.25,131.24,202.16Zm6.59,3.68c8.74-8.19,22.37-23.53,29.88-45H198A77.21,77.21,0,0,1,137.83,205.84Zm62.94-52.06H169.9a94.58,94.58,0,0,0,3.23-24.44,108.38,108.38,0,0,0-3-25.25h30.24a76.66,76.66,0,0,1,.38,49.69Z"/></g></g></svg>