<svg xmlns="http://www.w3.org/2000/svg" viewBox="0 0 265.86 273.65"><defs><style>.cls-1{fill:none;}.cls-2{fill:#1e2957;}.cls-3{fill:#fff;}</style></defs><title>Asset 10</title><g id="Layer_2" data-name="Layer 2"><g id="Layer_1-2" data-name="Layer 1"><path class="cls-1" d="M45.85,159.65H14.56A6.57,6.57,0,0,0,8,166.22v92.87a6.56,6.56,0,0,0,6.56,6.56H45.85a6.56,6.56,0,0,0,6.56-6.56V166.22A6.57,6.57,0,0,0,45.85,159.65ZM30.64,190.12a6.59,6.59,0,1,1,6.59-6.58A6.6,6.6,0,0,1,30.64,190.12Z"/><path class="cls-1" d="M187.67,251.14l61.2-59v.1l5.42-5.21a10.83,10.83,0,0,0-8.65-18.57H245l-.37,0a10.67,10.67,0,0,0-4.1,1.35l-61.67,37.87a4,4,0,0,1-2,.61H92.91a4.1,4.1,0,0,1,0-8.2h79.27l.9-1.71.21-.36a14.14,14.14,0,0,0-11.36-22.65H60.41v75.74Z"/><path class="cls-2" d="M129.26,111.39l-.13-.88.33-.82a31.73,31.73,0,0,1,20.48-18.54l1.54-.46,1.29,1c6.13,4.53,15.45,9.93,25.06,9.93a23.74,23.74,0,0,0,4.28-.39c9.72-1.74,14.77-8.05,19.66-14.15,4.68-5.81,9.51-11.81,19-14.68l.21-.06a4.16,4.16,0,0,0,2.59-1.83,4.07,4.07,0,0,0,.53-3.12,4.13,4.13,0,0,0-1.44-2.3l-.13-.11c-14.29-12.71-42.55-16.17-56-6.86a46.9,46.9,0,0,0-17.18,23.09l-.55,1.58-1.61.47a37,37,0,0,0-16.65,10.16l-3.85,4.07-1.59-5.37c-.39-1.29-.79-2.57-1.19-3.82l-.19-.58,0-.53,0-.07-.16-.28-.11-.3a114.2,114.2,0,0,0-20.11-35.94l-.08-.09a4.1,4.1,0,0,0-2.73-1.58,4.15,4.15,0,0,0-3.06.82,4.13,4.13,0,0,0-.76,5.79,3.11,3.11,0,0,0,.23.28l.11.13A101.89,101.89,0,0,1,111.7,79.57L114,84.73l-5.6-.64c-14-1.61-24.12-5.9-29.92-12.75-7-8.27-6.93-16.83-6.85-26.73l0-1.54a76.08,76.08,0,0,0-4-29.44L65.8,8.25l5.57,1.17c21.39,4.52,43.83,21.55,48,36.43a52.54,52.54,0,0,1,1.84,9.95,4.17,4.17,0,0,0,4.51,3.78,4.17,4.17,0,0,0,3.78-4.51,61.37,61.37,0,0,0-2.13-11.46C120.87,20.73,85.91-1.24,58.16.05H58a4.13,4.13,0,0,0-3.12,6.79L58,12.17c5.6,10.89,5.5,21.1,5.41,31-.11,11.3-.22,23,8.82,33.53C82.65,89,100.9,92.23,114.38,92.82l2.32.1.64,2.24c.27.93.53,1.85.79,2.71l.27.95a104.93,104.93,0,0,1-.52,57.61l-.06.2a4.13,4.13,0,1,0,7.75,2.85c0-.1.07-.19.1-.29A108.83,108.83,0,0,0,129.26,111.39Zm28.55-28.93a37.85,37.85,0,0,1,13.35-17.38l5.11-2.28c7.91-2.43,19.69-1.78,29.64,2l5.38,2-4.55,3.53A60,60,0,0,0,195.36,82l-.08.1c-4.89,6-8.11,10-14.68,11.2a16.89,16.89,0,0,1-3,.25c-5.44,0-11.7-2.44-18.66-7.3l-2.06-1.44Z"/><path class="cls-2" d="M55.2,251.14h5.21V175.4H55.2v-8.2h5.21v-1a14.58,14.58,0,0,0-14.56-14.57H14.56A14.58,14.58,0,0,0,0,166.22v92.87a14.57,14.57,0,0,0,14.56,14.56H45.85A14.57,14.57,0,0,0,60.4,259.34H55.2Zm-2.79,7.95a6.56,6.56,0,0,1-6.56,6.56H14.56A6.56,6.56,0,0,1,8,259.09V166.22a6.57,6.57,0,0,1,6.56-6.57H45.85a6.57,6.57,0,0,1,6.56,6.57Z"/><path class="cls-2" d="M259.36,164.83a19.07,19.07,0,0,0-15-4.62l-.4,0h-.67a19,19,0,0,0-7.11,2.48L184.4,194.56l-.09-5.61A22.45,22.45,0,0,0,162,167h0l-34.71.07A10.57,10.57,0,0,1,118,168a10.3,10.3,0,0,1-1.89-.91l-55.74.11v8.21H161.93a14.15,14.15,0,0,1,11.36,22.65l-.21.36-.9,1.71H92.91a4.1,4.1,0,0,0,0,8.2h83.94a4,4,0,0,0,2-.61l61.67-37.87a10.67,10.67,0,0,1,4.1-1.35l.37,0h.69A10.83,10.83,0,0,1,254.29,187l-5.42,5.21v-.1l-61.2,59H60.41v7.95c0,.08,0,.16,0,.25H189.33a3.92,3.92,0,0,0,2.85-1.15L260,192.79a19.05,19.05,0,0,0,1-26.59Z"/><path class="cls-2" d="M121.68,168.64a10.63,10.63,0,0,0,5.57-1.58l-11.1,0A10.3,10.3,0,0,0,118,168,10.56,10.56,0,0,0,121.68,168.64Z"/><polygon class="cls-2" points="55.2 175.4 60.41 175.4 60.41 167.19 55.2 167.2 55.2 175.4"/><path class="cls-2" d="M60.41,251.14H55.2v8.2h5.2c0-.09,0-.17,0-.25Z"/><circle class="cls-2" cx="30.64" cy="183.54" r="4.13"/><path class="cls-3" d="M30.64,177a6.59,6.59,0,1,0,6.59,6.59A6.6,6.6,0,0,0,30.64,177Zm0,11.94A5.36,5.36,0,1,1,36,183.54,5.36,5.36,0,0,1,30.64,188.89Z"/><path class="cls-3" d="M30.64,178.18A5.36,5.36,0,1,0,36,183.54,5.36,5.36,0,0,0,30.64,178.18Zm0,9.49a4.13,4.13,0,1,1,4.13-4.13A4.14,4.14,0,0,1,30.64,187.67Z"/></g></g></svg>