<svg xmlns="http://www.w3.org/2000/svg" viewBox="0 0 274.03 262.08"><defs><style>.cls-1{fill:none;}.cls-2{fill:#fff;}.cls-3{fill:#1e2957;}</style></defs><title>Asset 11</title><g id="Layer_2" data-name="Layer 2"><g id="Layer_1-2" data-name="Layer 1"><path class="cls-1" d="M45.85,148.08H14.56A6.56,6.56,0,0,0,8,154.64v92.88a6.56,6.56,0,0,0,6.56,6.56H45.85a6.56,6.56,0,0,0,6.56-6.56V154.64A6.56,6.56,0,0,0,45.85,148.08ZM30.64,178.55A6.59,6.59,0,1,1,37.23,172,6.6,6.6,0,0,1,30.64,178.55Z"/><path class="cls-1" d="M187.67,239.57l61.2-59v.1l5.42-5.21a10.84,10.84,0,0,0-8.65-18.58H245l-.37,0a10.67,10.67,0,0,0-4.1,1.35l-61.67,37.86a4,4,0,0,1-2,.62H92.91a4.1,4.1,0,0,1,0-8.2h79.27l.9-1.72.21-.35a14.16,14.16,0,0,0-1.35-18.56,14,14,0,0,0-10-4.09H60.41v75.74Z"/><polygon class="cls-2" points="249.03 129.72 248.7 130.05 248.7 130.21 248.54 130.22 248.22 130.53 248.22 130.22 247.73 130.22 247.73 131.71 250.21 129.23 248.7 129.24 248.7 129.73 249.03 129.72"/><polygon class="cls-2" points="248.22 129.73 247.73 129.74 247.73 130.22 248.22 130.22 248.22 129.73"/><polygon class="cls-2" points="248.7 130.21 248.7 130.05 248.54 130.22 248.7 130.21"/><polygon class="cls-2" points="248.22 129.73 248.7 129.73 248.7 129.24 248.22 129.25 248.22 129.73"/><polygon class="cls-2" points="248.22 129.25 247.73 129.25 247.73 129.74 248.22 129.73 248.22 129.25"/><polygon class="cls-2" points="248.22 130.53 248.54 130.22 248.22 130.22 248.22 130.53"/><polygon class="cls-2" points="249.03 129.72 248.7 129.73 248.7 130.05 249.03 129.72"/><polygon class="cls-2" points="248.54 130.22 248.7 130.05 248.7 129.73 248.22 129.73 248.22 130.22 248.54 130.22"/><rect class="cls-3" x="135.87" y="88.54" width="3.24" height="7.46"/><rect class="cls-3" x="148.52" y="88.54" width="3.24" height="7.46"/><rect class="cls-3" x="173.33" y="20.59" width="4.22" height="8.43"/><rect class="cls-3" x="185.98" y="20.59" width="4.22" height="8.43"/><rect class="cls-3" x="173.33" y="37.46" width="4.22" height="8.43"/><rect class="cls-3" x="185.98" y="37.46" width="4.22" height="8.43"/><rect class="cls-3" x="173.33" y="54.32" width="4.22" height="8.43"/><rect class="cls-3" x="185.98" y="54.32" width="4.22" height="8.43"/><rect class="cls-3" x="135.87" y="71.67" width="3.24" height="7.46"/><rect class="cls-3" x="148.52" y="71.67" width="3.24" height="7.46"/><path class="cls-3" d="M135.38,96.48h4.22V88.05h-4.22Zm.49-7.94h3.24V96h-3.24Z"/><path class="cls-3" d="M148,96.48h4.22V88.05H148Zm.49-7.94h3.24V96h-3.24Z"/><rect class="cls-3" x="135.87" y="105.4" width="3.24" height="7.46"/><rect class="cls-3" x="148.52" y="105.4" width="3.24" height="7.46"/><rect class="cls-3" x="173.33" y="71.19" width="4.22" height="8.43"/><rect class="cls-3" x="185.98" y="71.19" width="4.22" height="8.43"/><path class="cls-3" d="M253.43,96a3.73,3.73,0,0,0,2.64-6.37L222.34,55.9a3.74,3.74,0,0,0-5.27,0l-10.5,10.5V8a3.73,3.73,0,0,0-3.73-3.73H160.68A3.73,3.73,0,0,0,157,8V54.81H139.07l-.13-.29C136,48,133.55,43.6,131.51,41l-.18-.22,10.77-26.3a6.82,6.82,0,0,0-9.35-8.72L124.42,10l-5.27-7a6.83,6.83,0,0,0-10.29-.73L102.05,9,97.5,2.94a6.82,6.82,0,0,0-10.28-.73l-8.3,8.29L66.49,7a6.82,6.82,0,0,0-7.87,9.81L71.56,40.64l-.29.25C59.65,51.39,51.55,76.25,51.55,92v12.93a24.84,24.84,0,0,0,24.81,24.82H194.41l54.32-.48V96ZM65.9,14.54l11.34,3.24A6.83,6.83,0,0,0,83.94,16l8-8,4.55,6.08a6.85,6.85,0,0,0,5,2.71,6.77,6.77,0,0,0,5.3-2L113.62,8l5.15,6.86a6.81,6.81,0,0,0,8.51,2l7.29-3.65L124.44,37.94H111.91l5.51-11-6.67-3.34-7.18,14.37h-8l-5.8-12.06L83,29.11l4.25,8.83H78.58Zm53.11,44v63.72H76.36A17.37,17.37,0,0,1,59,104.91V92C59,69.64,72.82,48.2,77.2,45.48l.12-.08h48.12l.15.18c.69.84,2.26,3.07,4.91,8.53l.34.7h-8.11A3.73,3.73,0,0,0,119,58.54ZM157,122.26H126.47v-60H157Zm25.58-28.57A3.72,3.72,0,0,0,186,96h4.7v26.26H164.41V11.67h34.7V73.86L183.34,89.63A3.71,3.71,0,0,0,182.53,93.69Zm41.88,28.57H215V108.65h9.41Zm16.86,0h-9.4V104.91a3.74,3.74,0,0,0-3.73-3.73H211.27a3.74,3.74,0,0,0-3.73,3.73v17.35h-9.4V96h43.13ZM195,88.54,219.7,63.81l24.73,24.73Z"/><path class="cls-3" d="M105.87,67.46h-4.7V63.24H93.71v4.22H89a3.73,3.73,0,0,0-3.73,3.73V83.83A3.73,3.73,0,0,0,89,87.56h13.13v5.19H85.28v3.73A3.73,3.73,0,0,0,89,100.21h4.7v4.22h7.46v-4.22h4.7a3.73,3.73,0,0,0,3.73-3.73V83.83a3.74,3.74,0,0,0-3.73-3.73H92.74V74.92H109.6V71.19A3.73,3.73,0,0,0,105.87,67.46Z"/><rect class="cls-3" x="245.49" y="8.43" width="7.46" height="7.46"/><rect class="cls-3" x="237.06" y="8.43" width="7.46" height="7.46"/><rect class="cls-3" x="245.49" width="7.46" height="7.46"/><rect class="cls-3" x="253.92" y="8.43" width="7.46" height="7.46"/><rect class="cls-3" x="245.49" y="16.86" width="7.46" height="7.46"/><rect class="cls-3" x="266.57" y="29.51" width="7.46" height="7.46"/><rect class="cls-3" x="237.06" y="42.16" width="7.46" height="7.46"/><rect class="cls-3" x="30.47" y="37.94" width="7.46" height="7.46"/><rect class="cls-3" x="22.04" y="37.94" width="7.46" height="7.46"/><rect class="cls-3" x="30.47" y="29.51" width="7.46" height="7.46"/><rect class="cls-3" x="38.9" y="37.94" width="7.46" height="7.46"/><rect class="cls-3" x="30.47" y="46.38" width="7.46" height="7.46"/><rect class="cls-3" x="22.04" y="71.67" width="7.46" height="7.46"/><rect class="cls-3" x="38.9" width="7.46" height="7.46"/><path class="cls-3" d="M55.2,239.57h5.21V163.83H55.2v-8.2h5.21v-1a14.57,14.57,0,0,0-14.56-14.56H14.56A14.57,14.57,0,0,0,0,154.64v92.88a14.57,14.57,0,0,0,14.56,14.56H45.85A14.57,14.57,0,0,0,60.4,247.77H55.2Zm-2.79,8a6.56,6.56,0,0,1-6.56,6.56H14.56A6.56,6.56,0,0,1,8,247.52V154.64a6.56,6.56,0,0,1,6.56-6.56H45.85a6.56,6.56,0,0,1,6.56,6.56Z"/><path class="cls-3" d="M259.36,153.26a19,19,0,0,0-15-4.62l-.4,0h-.67a18.81,18.81,0,0,0-7.11,2.48L184.4,183l-.09-5.61a22.46,22.46,0,0,0-22.34-22h0l-101.55.21v8.21H161.93a14.13,14.13,0,0,1,14.2,14.08,14.18,14.18,0,0,1-2.84,8.57l-.21.35-.9,1.72H92.91a4.1,4.1,0,0,0,0,8.2h83.94a4,4,0,0,0,2-.62l61.67-37.86a10.67,10.67,0,0,1,4.1-1.35l.37,0h.69a10.84,10.84,0,0,1,8.65,18.58l-5.42,5.21v-.1l-61.2,59H60.41v8c0,.08,0,.16,0,.25H189.33a3.92,3.92,0,0,0,2.85-1.15L260,181.22a19.05,19.05,0,0,0,1-26.59Z"/><path class="cls-3" d="M60.41,239.57H55.2v8.2h5.2c0-.09,0-.17,0-.25Z"/><polygon class="cls-3" points="55.2 163.83 60.41 163.83 60.41 155.62 55.2 155.63 55.2 163.83"/></g></g></svg>