<svg xmlns="http://www.w3.org/2000/svg" viewBox="0 0 1737.69 267.1"><defs><style>.cls-1{fill:#fff;}</style></defs><title>Asset 4</title><g id="Layer_2" data-name="Layer 2"><g id="Layer_1-2" data-name="Layer 1"><path class="cls-1" d="M392.83,159.89l-3.21,44.91a29,29,0,0,0-4.81-.4h-9.33a28.44,28.44,0,0,0-4.71.4q6.42-34.47,11.43-68.57t9.22-69.16c1.47.26,2.84.5,4.11.7a26.46,26.46,0,0,0,4.11.3,25.65,25.65,0,0,0,3.81-.3c1.34-.2,2.74-.44,4.21-.7q5.41,12,11.33,24.46t11.83,24.76q5.91,12.33,11.83,24.16T454,162.9q12-22.46,23.95-47t22.76-48.82a44.72,44.72,0,0,0,8.62,1,44.1,44.1,0,0,0,8.42-1q2,17.24,4.31,37.09T526.55,143q2.21,18.95,4.41,35.39t4,26.46a80.72,80.72,0,0,0-8.12-.4H510.51q-4.2,0-8.42.4-1-20.64-3.3-44.71t-4.72-47.71h-.4Q482.24,136,471.22,158.89T449.36,204.8c-.67-.13-1.3-.23-1.9-.3a18.2,18.2,0,0,0-3.81,0c-.6.07-1.24.17-1.9.3q-10.83-22.45-21.56-44.91T398,114.38h-.4Q394.43,137.44,392.83,159.89Z"/><path class="cls-1" d="M552.62,159.29q0-13.42,4.11-23.46a49.45,49.45,0,0,1,10.92-16.74,44,44,0,0,1,15.74-10,52.27,52.27,0,0,1,18.35-3.31q23.44,0,36.28,13.23t12.84,35.89a63.8,63.8,0,0,1-3.61,22.06,48.62,48.62,0,0,1-10.13,16.74A40.83,40.83,0,0,1,621.58,204a55.76,55.76,0,0,1-19.84,3.41A66.23,66.23,0,0,1,584,205a42.59,42.59,0,0,1-15.74-8.12A41.47,41.47,0,0,1,556.93,182Q552.61,172.73,552.62,159.29Zm68.56-7.42q0-17.64-4.41-27.36t-14.63-9.73q-9.23,0-14.54,10.83t-5.31,33.88a113.64,113.64,0,0,0,1,15.64,48.09,48.09,0,0,0,3.31,12.53,21.36,21.36,0,0,0,6,8.32,14.32,14.32,0,0,0,9.33,3Q621.18,199,621.18,151.87Z"/><path class="cls-1" d="M700.58,123.4a42.85,42.85,0,0,1,13.13-13,32.16,32.16,0,0,1,17.14-4.61q15,0,23.16,8.72t8.12,28.17q0,10.23-.4,18t-.4,15.64q0,6.42.3,13.94t.7,14.53a44.61,44.61,0,0,0-6.62-.4H738.87a44.37,44.37,0,0,0-6.61.4,239.64,239.64,0,0,0,1.8-24.56q.41-14.13.4-32.38,0-12.63-4.31-18.54A14.16,14.16,0,0,0,718,123.4q-9,0-13.23,7.82t-4.21,21.66v8q0,12.24.3,23.06t1.3,20.85a43.65,43.65,0,0,0-6.51-.4H678.72a47,47,0,0,0-6.61.4q1-10,1.3-20.85t.3-23.06v-8q0-12.24-.3-23t-1.3-21.55c2.4.27,4.78.5,7.12.7s4.71.3,7.11.3,4.78-.1,7.12-.3,4.84-.43,7.52-.7l-.8,15Z"/><path class="cls-1" d="M839.72,114.78a20.72,20.72,0,0,0,.6,5l-17.64-.41c-.27,3.08-.51,6.62-.7,10.63s-.34,8.09-.41,12.23-.13,8.15-.2,12-.1,7.15-.1,9.82q0,10.43.5,16.84a40.91,40.91,0,0,0,1.71,9.83,8,8,0,0,0,3.41,4.61,11.66,11.66,0,0,0,5.61,1.2,22.5,22.5,0,0,0,5.61-.5,16.08,16.08,0,0,0,3.61-1.5v8.22a55.93,55.93,0,0,1-10,3.21,52.3,52.3,0,0,1-11.83,1.4q-25.47,0-25.46-30.47,0-5.82.2-13.14c.13-4.87.3-9.89.5-15s.37-10.23.5-15.24.2-9.66.2-13.94l-14,.21a20.72,20.72,0,0,0,.6-5,27.9,27.9,0,0,0-.6-5.41l14,.6q0-6.21-.2-11.63t-.6-13q7-2.81,13.83-5.91t13.64-6.52l2,1.4q-.4,3.21-.7,7.52t-.6,9c-.2,3.15-.34,6.35-.4,9.63s-.1,6.38-.1,9.32l17.64-.4A27.9,27.9,0,0,0,839.72,114.78Z"/><path class="cls-1" d="M905.28,171.32q3.6-9.23,6.61-17.14t5.72-15.34q2.7-7.41,5.21-14.83t5.11-15.64c1.47.27,2.84.5,4.12.7a24.94,24.94,0,0,0,3.9.3,27,27,0,0,0,4-.3c1.34-.2,2.81-.43,4.41-.7q-1,2.61-4.71,11.12t-9,21.06q-5.31,12.52-11.73,27.76T906,199.09q-6.53,15.54-12.63,30.77t-10.73,27.67c-1.47-.27-2.87-.5-4.21-.7a29.69,29.69,0,0,0-8.42,0c-1.34.2-2.74.43-4.21.7q6.62-13.23,13-26.16t12.43-26.17q-4.82-11.41-10.72-25.86t-11.63-28.27q-5.71-13.83-10.43-25.26t-7.11-17.44c2.53.27,5,.5,7.51.7s5,.3,7.52.3,5-.1,7.42-.3,4.88-.43,7.42-.7Q887,124.21,893,139.84T905.28,171.32Z"/><path class="cls-1" d="M999.69,128.1q0-16.65-.4-29.58t-1.2-26q3.4.41,7.42.7t9,.3q7,0,14.53-.5t14.74-.5q14.23,0,22.25,2.11t12.63,6.11a33.33,33.33,0,0,1,9.43,11.63,36.22,36.22,0,0,1,3,15.44q0,11.43-3.81,19.65a34.08,34.08,0,0,1-10.73,13.33,46.61,46.61,0,0,1-16.34,7.52,83.59,83.59,0,0,1-20.65,2.4h-10.22q0,15,.3,30t1.3,29.58a63.18,63.18,0,0,0-7.42-.4h-18a63.06,63.06,0,0,0-7.42.4q.79-12.44,1.2-25.37t.4-29.57Zm59.75-17a41.67,41.67,0,0,0-1.71-12.84,22,22,0,0,0-4.61-8.32,17.27,17.27,0,0,0-6.81-4.51,24,24,0,0,0-8.12-1.4h-6.62a7.56,7.56,0,0,0-1.8.2q-.21,14.43-.3,28.37t-.1,28a55.55,55.55,0,0,0,10.32-1,24.47,24.47,0,0,0,9.73-4.11,22.66,22.66,0,0,0,7.21-8.92Q1059.44,120.69,1059.44,111.06Z"/><path class="cls-1" d="M1134.62,138.72q5.22-13.83,12.63-20.35a25.88,25.88,0,0,1,17.65-6.51,11.86,11.86,0,0,1,1.7.1,10.21,10.21,0,0,0,1.5.1,59.28,59.28,0,0,0-.9,6.41q-.3,3.42-.3,8v9.83a28,28,0,0,0,.2,3.4l-1.8,1.61a22.15,22.15,0,0,0-4.51-2,19,19,0,0,0-5.72-.8q-9,0-14.23,5.92a20.37,20.37,0,0,0-5.22,13.93v8q0,12.23.31,23.06t1.3,20.85a43.71,43.71,0,0,0-6.52-.4h-16.94a46.86,46.86,0,0,0-6.61.4q1-10,1.3-20.85t.3-23.06v-8q0-12.23-.3-23t-1.3-21.55q3.4.4,6.91.7c2.34.2,4.64.3,6.92.3s4.58-.1,6.92-.3,4.64-.43,6.91-.7l-.6,24.46Z"/><path class="cls-1" d="M1179.73,164.79q0-13.44,4.11-23.46a49.47,49.47,0,0,1,10.93-16.74,44,44,0,0,1,15.74-10,52.43,52.43,0,0,1,18.34-3.3q23.46,0,36.29,13.23T1278,160.37a63.52,63.52,0,0,1-3.61,22.06,48.35,48.35,0,0,1-10.12,16.74,41,41,0,0,1-15.54,10.32,55.6,55.6,0,0,1-19.85,3.41,66.5,66.5,0,0,1-17.74-2.4,42.66,42.66,0,0,1-15.74-8.12A41.53,41.53,0,0,1,1184,187.44Q1179.72,178.21,1179.73,164.79Zm68.57-7.42q0-17.64-4.41-27.37t-14.64-9.72q-9.23,0-14.53,10.82T1209.4,165a112,112,0,0,0,1,15.63,47.89,47.89,0,0,0,3.3,12.53,21.42,21.42,0,0,0,6,8.33,14.34,14.34,0,0,0,9.32,3Q1248.3,204.48,1248.3,157.37Z"/><path class="cls-1" d="M1296.82,183.23q0-19.65-.41-36.09t-1.2-33.28q3.4.4,7,.7c2.41.2,4.74.3,7,.3s4.57-.1,6.91-.3,4.65-.43,6.92-.7c-.27,2.28-.57,5-.9,8.12a84.81,84.81,0,0,0-.5,9.12h.4A29.27,29.27,0,0,1,1332.3,117q7.42-5.72,18.25-5.71a39.08,39.08,0,0,1,14.63,2.8,33.18,33.18,0,0,1,12.43,8.82,43.78,43.78,0,0,1,8.62,15.44q3.21,9.44,3.21,22.46,0,14.24-3.41,24.25a47.81,47.81,0,0,1-8.92,16.34,30.72,30.72,0,0,1-12.63,8.93,42.11,42.11,0,0,1-14.53,2.6,33.62,33.62,0,0,1-15.64-3.41,23.22,23.22,0,0,1-10.23-10.62h-.4v16.24q0,7,.1,14.33t.3,13.94q.2,6.62.5,11.83c.21,3.47.44,6.08.71,7.82-1.74-.27-4-.5-6.62-.71s-5.48-.3-8.42-.3-5.75.1-8.42.3-4.88.44-6.62.71q.4-8.43.7-16.64c.2-5.49.37-11,.5-16.65s.24-11.29.31-17,.1-11.89.1-18.44Zm63-21.85q0-19.84-4.91-28.77t-12.93-8.92a13.06,13.06,0,0,0-7.22,2.2,19.46,19.46,0,0,0-6.12,7,44.28,44.28,0,0,0-4.31,12.63,96.44,96.44,0,0,0-1.6,19.05q0,18.24,4.71,27t13.74,8.72q8.61,0,13.63-9.42T1359.77,161.38Z"/><path class="cls-1" d="M1432.35,162.38a67.35,67.35,0,0,0,1.6,15,37.67,37.67,0,0,0,4.91,12.13,24.17,24.17,0,0,0,8.42,8,23.72,23.72,0,0,0,11.93,2.9,37.42,37.42,0,0,0,24.66-9l2.41,1.81-4.41,11.22a40.85,40.85,0,0,1-12,6.12q-7,2.29-18.45,2.3a63.32,63.32,0,0,1-18.64-2.7,39.71,39.71,0,0,1-15.54-8.93,43.59,43.59,0,0,1-10.63-15.73q-3.9-9.53-3.91-22.76a66,66,0,0,1,3.51-22.65,44.59,44.59,0,0,1,9.73-16,39.69,39.69,0,0,1,14.73-9.63,52.41,52.41,0,0,1,18.55-3.2q19.85,0,30.37,11.62t10.53,32.88V160a9.35,9.35,0,0,1-.2,2.41Zm30.87-9q-.4-15-3.71-24.06t-11.12-9a10.07,10.07,0,0,0-7.42,3,21.66,21.66,0,0,0-4.81,7.72,51.08,51.08,0,0,0-2.71,10.63,100.15,100.15,0,0,0-1.1,11.73Z"/><path class="cls-1" d="M1535.8,138.72q5.21-13.83,12.63-20.35a25.86,25.86,0,0,1,17.64-6.51,11.92,11.92,0,0,1,1.71.1,10.11,10.11,0,0,0,1.5.1,59.28,59.28,0,0,0-.9,6.41q-.3,3.42-.3,8v9.83a28,28,0,0,0,.2,3.4l-1.81,1.61a21.67,21.67,0,0,0-4.51-2,18.84,18.84,0,0,0-5.71-.8q-9,0-14.23,5.92a20.37,20.37,0,0,0-5.22,13.93v8q0,12.23.3,23.06t1.31,20.85a43.71,43.71,0,0,0-6.52-.4H1515a47.11,47.11,0,0,0-6.62.4q1-10,1.31-20.85t.3-23.06v-8q0-12.23-.3-23t-1.31-21.55q3.4.4,6.92.7c2.34.2,4.64.3,6.92.3s4.57-.1,6.91-.3,4.65-.43,6.92-.7l-.6,24.46Z"/><path class="cls-1" d="M1637,120.28a20.58,20.58,0,0,0,.61,5l-17.65-.4q-.4,4.61-.7,10.62t-.4,12.23q-.11,6.22-.2,12t-.1,9.83q0,10.43.5,16.84a40.39,40.39,0,0,0,1.7,9.82,8,8,0,0,0,3.41,4.61,11.55,11.55,0,0,0,5.62,1.21,23.05,23.05,0,0,0,5.61-.5,16.81,16.81,0,0,0,3.61-1.51v8.22a56.2,56.2,0,0,1-10,3.21,52.37,52.37,0,0,1-11.83,1.4q-25.47,0-25.47-30.47,0-5.82.2-13.13t.5-15c.21-5.14.37-10.23.51-15.24s.2-9.65.2-13.93l-14,.2a20.58,20.58,0,0,0,.6-5,28,28,0,0,0-.6-5.42l14,.61c0-4.15-.07-8-.2-11.63s-.34-8-.6-13q7-2.79,13.83-5.91t13.63-6.51l2,1.4c-.27,2.14-.5,4.64-.7,7.52s-.41,5.88-.61,9-.33,6.35-.4,9.62-.1,6.39-.1,9.32l17.65-.4A28.07,28.07,0,0,0,1637,120.28Z"/><path class="cls-1" d="M1698.59,176.81q3.62-9.21,6.62-17.14t5.71-15.33q2.71-7.43,5.22-14.84t5.11-15.64c1.47.27,2.84.5,4.11.7a25.07,25.07,0,0,0,3.91.3,27.16,27.16,0,0,0,4-.3c1.33-.2,2.8-.43,4.41-.7q-1,2.61-4.71,11.13t-9,21q-5.32,12.53-11.73,27.77t-12.93,30.77q-6.52,15.54-12.64,30.78T1675.94,263c-1.47-.27-2.88-.5-4.21-.71a29.69,29.69,0,0,0-8.42,0c-1.34.21-2.74.44-4.21.71q6.62-13.24,13-26.17t12.43-26.16q-4.82-11.43-10.73-25.87t-11.62-28.26q-5.71-13.84-10.43-25.27t-7.12-17.44q3.81.4,7.52.7t7.52.3q3.81,0,7.42-.3c2.4-.2,4.88-.43,7.41-.7q5.82,15.84,11.73,31.48T1698.59,176.81Z"/><path class="cls-1" d="M280,267.1H28.36A28.39,28.39,0,0,1,0,238.74V28.36A28.39,28.39,0,0,1,28.36,0H280a28.39,28.39,0,0,1,28.36,28.36V238.74A28.39,28.39,0,0,1,280,267.1ZM28.36,14.51A13.86,13.86,0,0,0,14.51,28.36V238.74a13.86,13.86,0,0,0,13.85,13.85H280a13.86,13.86,0,0,0,13.85-13.85V28.36A13.86,13.86,0,0,0,280,14.51Z"/><path class="cls-1" d="M173.4,96l32.16-47.38a2.63,2.63,0,0,1,4.46.15l67.84,116.65a5.29,5.29,0,0,1-.19,5.6l-32,47.48a2.64,2.64,0,0,1-4.47-.15L173.21,101.61A5.28,5.28,0,0,1,173.4,96Z"/><path class="cls-1" d="M71.61,117.75a2.64,2.64,0,0,0-4.47-.15L35,165a5.28,5.28,0,0,0-.2,5.62l27.82,47.78a2.63,2.63,0,0,0,4.48.12L98,171.8a7.91,7.91,0,0,0,.23-8.34Z"/><path class="cls-1" d="M119.64,48.76a2.64,2.64,0,0,0-4.47-.15L83,96a5.28,5.28,0,0,0-.2,5.62l31.56,54.2,35.9-54.35Z"/><path class="cls-1" d="M187.47,165.41l-37.19-63.95-35.9,54.35,36.4,62.53a2.64,2.64,0,0,0,4.47.15l32-47.48A5.25,5.25,0,0,0,187.47,165.41Z"/></g></g></svg>