<svg xmlns="http://www.w3.org/2000/svg" viewBox="0 0 115.75 313.99"><defs><style>.cls-1{fill:#003a70;stroke:#003a70;stroke-miterlimit:10;stroke-width:9.5px;}</style></defs><title>Asset 6</title><g id="Layer_2" data-name="Layer 2"><g id="Layer_1-2" data-name="Layer 1"><path class="cls-1" d="M110.7,308.15H5L21.12,41.33H94.59ZM13,300.7h89.73L87.56,48.78H28Z"/><rect class="cls-1" x="56.35" y="30.37" width="7.44" height="100.3" transform="translate(-39.34 66.06) rotate(-45)"/><rect class="cls-1" x="5.6" y="76.74" width="100.15" height="7.44" transform="translate(-40.59 62.93) rotate(-45)"/><rect class="cls-1" x="56.37" y="124.96" width="7.44" height="100.3" transform="translate(-106.22 93.78) rotate(-45)"/><rect class="cls-1" x="5.59" y="171.34" width="100.15" height="7.44" transform="translate(-107.48 90.64) rotate(-45)"/><rect class="cls-1" x="56.74" y="116.84" width="7.44" height="116.53" transform="translate(-106.11 94.04) rotate(-45)"/><rect class="cls-1" x="-2.67" y="171.21" width="116.08" height="7.44" transform="translate(-107.48 90.39) rotate(-45)"/><rect class="cls-1" x="45.32" y="217.57" width="7.44" height="102.01" transform="translate(-175.54 113.34) rotate(-45)"/><rect class="cls-1" x="15.68" y="264.85" width="102.01" height="7.44" transform="translate(-170.38 125.82) rotate(-45)"/><path class="cls-1" d="M48.18,48.78a3.72,3.72,0,0,1-3.72-3.72V8.47a3.72,3.72,0,1,1,7.44,0V45.06A3.72,3.72,0,0,1,48.18,48.78Z"/><path class="cls-1" d="M67.53,48.78a3.73,3.73,0,0,1-3.72-3.72V20.79a3.72,3.72,0,1,1,7.44,0V45.21A3.72,3.72,0,0,1,67.53,48.78Z"/></g></g></svg>