<svg xmlns="http://www.w3.org/2000/svg" viewBox="0 0 177.76 225.82"><defs><style>.cls-1{fill:#003a70;}</style></defs><title>Asset 7</title><g id="Layer_2" data-name="Layer 2"><g id="Layer_1-2" data-name="Layer 1"><path class="cls-1" d="M87.64,0C61.78,0,37.71,10.5,21.07,29.19a82.69,82.69,0,0,0-20.48,65c2.3,20,14.59,38.92,26.62,57.35,3.08,4.87,6.15,9.47,9,14.08,8.45,13.83,17.16,27.14,25.61,40.2L67.15,214a25.56,25.56,0,0,0,21.51,11.78h.26a24.82,24.82,0,0,0,21.5-12.29c4.61-7.68,9.48-15.62,14.34-23.81,4.35-7.43,10.24-15.87,16.64-24.84,17.16-24.32,36.36-51.71,36.36-76.29C178,39.43,137.31,0,87.64,0Zm37.12,152.6A287.92,287.92,0,0,0,107.35,179c-4.86,8.19-9.73,16.13-14.34,23.55a6.09,6.09,0,0,1-4.35,2.56,5,5,0,0,1-4.35-2.3l-5.38-8.2c-8.45-12.8-17.15-26.37-25.35-39.68-2.81-4.87-6.14-9.73-9.21-14.59C33.61,123.92,22.6,107,21.07,91.92A61.7,61.7,0,0,1,36.69,42.76c12.8-14.34,31-22.28,51.2-22.28,38.41,0,69.9,30.21,69.9,67.6C157.53,106,140.12,130.83,124.76,152.6Z"/><path class="cls-1" d="M88.92,36.61c-27.91,0-50.44,22-50.44,48.9S61,134.42,88.92,134.42s50.44-22,50.44-48.91S116.82,36.61,88.92,36.61Zm0,77.32c-16.65,0-30-12.8-30-28.42s13.31-28.41,30-28.41,30,12.8,30,28.41S105.56,113.93,88.92,113.93Z"/></g></g></svg>